<mxfile host="app.diagrams.net" modified="2023-07-20T10:33:20.481Z" agent="Mozilla/5.0 (Windows NT 10.0; Win64; x64) AppleWebKit/537.36 (KHTML, like Gecko) Chrome/115.0.0.0 Safari/537.36" etag="s8uVoFqNwz0AzbwReZf6" version="21.6.3" type="google">
  <diagram name="Page-1" id="w9KkjwzFANMO7tng2wgZ">
    <mxGraphModel grid="1" page="1" gridSize="10" guides="1" tooltips="1" connect="1" arrows="1" fold="1" pageScale="1" pageWidth="850" pageHeight="1100" math="0" shadow="0">
      <root>
        <mxCell id="0" />
        <mxCell id="1" parent="0" />
        <mxCell id="WYrvmtlL9bK9VxbpXy3B-1" value="Bank Managment System" style="text;strokeColor=none;align=center;fillColor=none;html=1;verticalAlign=middle;whiteSpace=wrap;rounded=0;" vertex="1" parent="1">
          <mxGeometry x="10" y="40" width="190" height="20" as="geometry" />
        </mxCell>
        <mxCell id="WYrvmtlL9bK9VxbpXy3B-3" value="C1 : Customer" style="swimlane;fontStyle=0;childLayout=stackLayout;horizontal=1;startSize=26;fillColor=none;horizontalStack=0;resizeParent=1;resizeParentMax=0;resizeLast=0;collapsible=1;marginBottom=0;whiteSpace=wrap;html=1;" vertex="1" parent="1">
          <mxGeometry x="280" y="80" width="270" height="52" as="geometry" />
        </mxCell>
        <mxCell id="WYrvmtlL9bK9VxbpXy3B-4" value="customerName = PravinKumar RajaSahayam" style="text;strokeColor=none;fillColor=none;align=left;verticalAlign=top;spacingLeft=4;spacingRight=4;overflow=hidden;rotatable=0;points=[[0,0.5],[1,0.5]];portConstraint=eastwest;whiteSpace=wrap;html=1;" vertex="1" parent="WYrvmtlL9bK9VxbpXy3B-3">
          <mxGeometry y="26" width="270" height="26" as="geometry" />
        </mxCell>
        <mxCell id="WYrvmtlL9bK9VxbpXy3B-9" value="S1 : SavingAccount" style="swimlane;fontStyle=0;childLayout=stackLayout;horizontal=1;startSize=26;fillColor=none;horizontalStack=0;resizeParent=1;resizeParentMax=0;resizeLast=0;collapsible=1;marginBottom=0;whiteSpace=wrap;html=1;" vertex="1" parent="1">
          <mxGeometry x="160" y="190" width="140" height="78" as="geometry" />
        </mxCell>
        <mxCell id="WYrvmtlL9bK9VxbpXy3B-10" value="InterestRate = 5.0" style="text;strokeColor=none;fillColor=none;align=left;verticalAlign=top;spacingLeft=4;spacingRight=4;overflow=hidden;rotatable=0;points=[[0,0.5],[1,0.5]];portConstraint=eastwest;whiteSpace=wrap;html=1;" vertex="1" parent="WYrvmtlL9bK9VxbpXy3B-9">
          <mxGeometry y="26" width="140" height="26" as="geometry" />
        </mxCell>
        <mxCell id="WYrvmtlL9bK9VxbpXy3B-11" value="CheckBalance = 10001" style="text;strokeColor=none;fillColor=none;align=left;verticalAlign=top;spacingLeft=4;spacingRight=4;overflow=hidden;rotatable=0;points=[[0,0.5],[1,0.5]];portConstraint=eastwest;whiteSpace=wrap;html=1;" vertex="1" parent="WYrvmtlL9bK9VxbpXy3B-9">
          <mxGeometry y="52" width="140" height="26" as="geometry" />
        </mxCell>
        <mxCell id="WYrvmtlL9bK9VxbpXy3B-13" value="C1 : CurrentAccount" style="swimlane;fontStyle=0;childLayout=stackLayout;horizontal=1;startSize=26;fillColor=none;horizontalStack=0;resizeParent=1;resizeParentMax=0;resizeLast=0;collapsible=1;marginBottom=0;whiteSpace=wrap;html=1;" vertex="1" parent="1">
          <mxGeometry x="355" y="190" width="140" height="78" as="geometry" />
        </mxCell>
        <mxCell id="WYrvmtlL9bK9VxbpXy3B-14" value="InterestRate = 8.0" style="text;strokeColor=none;fillColor=none;align=left;verticalAlign=top;spacingLeft=4;spacingRight=4;overflow=hidden;rotatable=0;points=[[0,0.5],[1,0.5]];portConstraint=eastwest;whiteSpace=wrap;html=1;" vertex="1" parent="WYrvmtlL9bK9VxbpXy3B-13">
          <mxGeometry y="26" width="140" height="26" as="geometry" />
        </mxCell>
        <mxCell id="WYrvmtlL9bK9VxbpXy3B-15" value="CheckBalance = 10002" style="text;strokeColor=none;fillColor=none;align=left;verticalAlign=top;spacingLeft=4;spacingRight=4;overflow=hidden;rotatable=0;points=[[0,0.5],[1,0.5]];portConstraint=eastwest;whiteSpace=wrap;html=1;" vertex="1" parent="WYrvmtlL9bK9VxbpXy3B-13">
          <mxGeometry y="52" width="140" height="26" as="geometry" />
        </mxCell>
        <mxCell id="WYrvmtlL9bK9VxbpXy3B-17" value="L1 : LoanAccount" style="swimlane;fontStyle=0;childLayout=stackLayout;horizontal=1;startSize=26;fillColor=none;horizontalStack=0;resizeParent=1;resizeParentMax=0;resizeLast=0;collapsible=1;marginBottom=0;whiteSpace=wrap;html=1;" vertex="1" parent="1">
          <mxGeometry x="570" y="190" width="160" height="104" as="geometry" />
        </mxCell>
        <mxCell id="WYrvmtlL9bK9VxbpXy3B-18" value="LoanNo = 123456" style="text;strokeColor=none;fillColor=none;align=left;verticalAlign=top;spacingLeft=4;spacingRight=4;overflow=hidden;rotatable=0;points=[[0,0.5],[1,0.5]];portConstraint=eastwest;whiteSpace=wrap;html=1;" vertex="1" parent="WYrvmtlL9bK9VxbpXy3B-17">
          <mxGeometry y="26" width="160" height="26" as="geometry" />
        </mxCell>
        <mxCell id="WYrvmtlL9bK9VxbpXy3B-19" value="LoanAmount = 10003" style="text;strokeColor=none;fillColor=none;align=left;verticalAlign=top;spacingLeft=4;spacingRight=4;overflow=hidden;rotatable=0;points=[[0,0.5],[1,0.5]];portConstraint=eastwest;whiteSpace=wrap;html=1;" vertex="1" parent="WYrvmtlL9bK9VxbpXy3B-17">
          <mxGeometry y="52" width="160" height="26" as="geometry" />
        </mxCell>
        <mxCell id="WYrvmtlL9bK9VxbpXy3B-20" value="LoanType = Personal Loan" style="text;strokeColor=none;fillColor=none;align=left;verticalAlign=top;spacingLeft=4;spacingRight=4;overflow=hidden;rotatable=0;points=[[0,0.5],[1,0.5]];portConstraint=eastwest;whiteSpace=wrap;html=1;" vertex="1" parent="WYrvmtlL9bK9VxbpXy3B-17">
          <mxGeometry y="78" width="160" height="26" as="geometry" />
        </mxCell>
        <mxCell id="WYrvmtlL9bK9VxbpXy3B-33" value="" style="html=1;verticalAlign=bottom;endArrow=block;edgeStyle=elbowEdgeStyle;elbow=vertical;curved=0;rounded=0;" edge="1" parent="1" source="WYrvmtlL9bK9VxbpXy3B-4" target="WYrvmtlL9bK9VxbpXy3B-17">
          <mxGeometry x="0.7952" y="156" width="80" relative="1" as="geometry">
            <mxPoint x="380" y="240" as="sourcePoint" />
            <mxPoint x="460" y="240" as="targetPoint" />
            <Array as="points">
              <mxPoint x="415" y="160" />
            </Array>
            <mxPoint x="-56" y="-120" as="offset" />
          </mxGeometry>
        </mxCell>
        <mxCell id="WYrvmtlL9bK9VxbpXy3B-34" value="" style="html=1;verticalAlign=bottom;endArrow=block;edgeStyle=elbowEdgeStyle;elbow=vertical;curved=0;rounded=0;exitX=0.5;exitY=1;exitDx=0;exitDy=0;exitPerimeter=0;entryX=0.45;entryY=-0.013;entryDx=0;entryDy=0;entryPerimeter=0;" edge="1" parent="1" source="WYrvmtlL9bK9VxbpXy3B-4" target="WYrvmtlL9bK9VxbpXy3B-9">
          <mxGeometry x="-1" y="277" width="80" relative="1" as="geometry">
            <mxPoint x="380" y="240" as="sourcePoint" />
            <mxPoint x="460" y="240" as="targetPoint" />
            <mxPoint x="-2" y="-32" as="offset" />
          </mxGeometry>
        </mxCell>
        <mxCell id="WYrvmtlL9bK9VxbpXy3B-37" value="" style="html=1;verticalAlign=bottom;endArrow=block;edgeStyle=elbowEdgeStyle;elbow=vertical;curved=0;rounded=0;exitX=0.5;exitY=1.077;exitDx=0;exitDy=0;exitPerimeter=0;entryX=0.429;entryY=-0.013;entryDx=0;entryDy=0;entryPerimeter=0;" edge="1" parent="1" source="WYrvmtlL9bK9VxbpXy3B-4" target="WYrvmtlL9bK9VxbpXy3B-13">
          <mxGeometry x="-1" y="298" width="80" relative="1" as="geometry">
            <mxPoint x="380" y="240" as="sourcePoint" />
            <mxPoint x="460" y="240" as="targetPoint" />
            <mxPoint x="-3" y="-44" as="offset" />
          </mxGeometry>
        </mxCell>
        <mxCell id="WYrvmtlL9bK9VxbpXy3B-38" value="C2 : Customer" style="swimlane;fontStyle=0;childLayout=stackLayout;horizontal=1;startSize=26;fillColor=none;horizontalStack=0;resizeParent=1;resizeParentMax=0;resizeLast=0;collapsible=1;marginBottom=0;whiteSpace=wrap;html=1;" vertex="1" parent="1">
          <mxGeometry x="320" y="330" width="190" height="52" as="geometry" />
        </mxCell>
        <mxCell id="WYrvmtlL9bK9VxbpXy3B-39" value="CustomerName = Mohan" style="text;strokeColor=none;fillColor=none;align=left;verticalAlign=top;spacingLeft=4;spacingRight=4;overflow=hidden;rotatable=0;points=[[0,0.5],[1,0.5]];portConstraint=eastwest;whiteSpace=wrap;html=1;" vertex="1" parent="WYrvmtlL9bK9VxbpXy3B-38">
          <mxGeometry y="26" width="190" height="26" as="geometry" />
        </mxCell>
        <mxCell id="WYrvmtlL9bK9VxbpXy3B-42" value="S2 : SavingAccount" style="swimlane;fontStyle=0;childLayout=stackLayout;horizontal=1;startSize=26;fillColor=none;horizontalStack=0;resizeParent=1;resizeParentMax=0;resizeLast=0;collapsible=1;marginBottom=0;whiteSpace=wrap;html=1;" vertex="1" parent="1">
          <mxGeometry x="160" y="420" width="140" height="78" as="geometry" />
        </mxCell>
        <mxCell id="WYrvmtlL9bK9VxbpXy3B-43" value="InterestRate = 4.0" style="text;strokeColor=none;fillColor=none;align=left;verticalAlign=top;spacingLeft=4;spacingRight=4;overflow=hidden;rotatable=0;points=[[0,0.5],[1,0.5]];portConstraint=eastwest;whiteSpace=wrap;html=1;" vertex="1" parent="WYrvmtlL9bK9VxbpXy3B-42">
          <mxGeometry y="26" width="140" height="26" as="geometry" />
        </mxCell>
        <mxCell id="WYrvmtlL9bK9VxbpXy3B-44" value="CheckBalance = 20001" style="text;strokeColor=none;fillColor=none;align=left;verticalAlign=top;spacingLeft=4;spacingRight=4;overflow=hidden;rotatable=0;points=[[0,0.5],[1,0.5]];portConstraint=eastwest;whiteSpace=wrap;html=1;" vertex="1" parent="WYrvmtlL9bK9VxbpXy3B-42">
          <mxGeometry y="52" width="140" height="26" as="geometry" />
        </mxCell>
        <mxCell id="WYrvmtlL9bK9VxbpXy3B-46" value="C2 : CurrentAccount" style="swimlane;fontStyle=0;childLayout=stackLayout;horizontal=1;startSize=26;fillColor=none;horizontalStack=0;resizeParent=1;resizeParentMax=0;resizeLast=0;collapsible=1;marginBottom=0;whiteSpace=wrap;html=1;" vertex="1" parent="1">
          <mxGeometry x="345" y="420" width="140" height="78" as="geometry" />
        </mxCell>
        <mxCell id="WYrvmtlL9bK9VxbpXy3B-47" value="InterestRate = 9.0" style="text;strokeColor=none;fillColor=none;align=left;verticalAlign=top;spacingLeft=4;spacingRight=4;overflow=hidden;rotatable=0;points=[[0,0.5],[1,0.5]];portConstraint=eastwest;whiteSpace=wrap;html=1;" vertex="1" parent="WYrvmtlL9bK9VxbpXy3B-46">
          <mxGeometry y="26" width="140" height="26" as="geometry" />
        </mxCell>
        <mxCell id="WYrvmtlL9bK9VxbpXy3B-48" value="CheckBalance = 20002" style="text;strokeColor=none;fillColor=none;align=left;verticalAlign=top;spacingLeft=4;spacingRight=4;overflow=hidden;rotatable=0;points=[[0,0.5],[1,0.5]];portConstraint=eastwest;whiteSpace=wrap;html=1;" vertex="1" parent="WYrvmtlL9bK9VxbpXy3B-46">
          <mxGeometry y="52" width="140" height="26" as="geometry" />
        </mxCell>
        <mxCell id="WYrvmtlL9bK9VxbpXy3B-50" value="L2 : LoanAccount" style="swimlane;fontStyle=0;childLayout=stackLayout;horizontal=1;startSize=26;fillColor=none;horizontalStack=0;resizeParent=1;resizeParentMax=0;resizeLast=0;collapsible=1;marginBottom=0;whiteSpace=wrap;html=1;" vertex="1" parent="1">
          <mxGeometry x="570" y="420" width="160" height="104" as="geometry" />
        </mxCell>
        <mxCell id="WYrvmtlL9bK9VxbpXy3B-51" value="LoanNo = 123456" style="text;strokeColor=none;fillColor=none;align=left;verticalAlign=top;spacingLeft=4;spacingRight=4;overflow=hidden;rotatable=0;points=[[0,0.5],[1,0.5]];portConstraint=eastwest;whiteSpace=wrap;html=1;" vertex="1" parent="WYrvmtlL9bK9VxbpXy3B-50">
          <mxGeometry y="26" width="160" height="26" as="geometry" />
        </mxCell>
        <mxCell id="WYrvmtlL9bK9VxbpXy3B-52" value="LoanAmount = 20003" style="text;strokeColor=none;fillColor=none;align=left;verticalAlign=top;spacingLeft=4;spacingRight=4;overflow=hidden;rotatable=0;points=[[0,0.5],[1,0.5]];portConstraint=eastwest;whiteSpace=wrap;html=1;" vertex="1" parent="WYrvmtlL9bK9VxbpXy3B-50">
          <mxGeometry y="52" width="160" height="26" as="geometry" />
        </mxCell>
        <mxCell id="WYrvmtlL9bK9VxbpXy3B-53" value="LoanType = Personal Loan" style="text;strokeColor=none;fillColor=none;align=left;verticalAlign=top;spacingLeft=4;spacingRight=4;overflow=hidden;rotatable=0;points=[[0,0.5],[1,0.5]];portConstraint=eastwest;whiteSpace=wrap;html=1;" vertex="1" parent="WYrvmtlL9bK9VxbpXy3B-50">
          <mxGeometry y="78" width="160" height="26" as="geometry" />
        </mxCell>
        <mxCell id="WYrvmtlL9bK9VxbpXy3B-54" value="" style="html=1;verticalAlign=bottom;endArrow=block;edgeStyle=elbowEdgeStyle;elbow=vertical;curved=0;rounded=0;exitX=0.468;exitY=1.154;exitDx=0;exitDy=0;exitPerimeter=0;entryX=0.5;entryY=0;entryDx=0;entryDy=0;" edge="1" parent="1" source="WYrvmtlL9bK9VxbpXy3B-39" target="WYrvmtlL9bK9VxbpXy3B-50">
          <mxGeometry x="0.8764" y="66" width="80" relative="1" as="geometry">
            <mxPoint x="380" y="420" as="sourcePoint" />
            <mxPoint x="460" y="420" as="targetPoint" />
            <mxPoint x="-26" y="-53" as="offset" />
          </mxGeometry>
        </mxCell>
        <mxCell id="WYrvmtlL9bK9VxbpXy3B-59" value="" style="html=1;verticalAlign=bottom;endArrow=block;edgeStyle=elbowEdgeStyle;elbow=vertical;curved=0;rounded=0;exitX=0.463;exitY=1.077;exitDx=0;exitDy=0;exitPerimeter=0;entryX=0.586;entryY=-0.013;entryDx=0;entryDy=0;entryPerimeter=0;" edge="1" parent="1">
          <mxGeometry x="0.811" y="-116" width="80" relative="1" as="geometry">
            <mxPoint x="408.97" y="387.00199999999995" as="sourcePoint" />
            <mxPoint x="243.03999999999996" y="421.986" as="targetPoint" />
            <Array as="points">
              <mxPoint x="321" y="403" />
            </Array>
            <mxPoint x="13" y="-53" as="offset" />
          </mxGeometry>
        </mxCell>
        <mxCell id="WYrvmtlL9bK9VxbpXy3B-60" value="" style="html=1;verticalAlign=bottom;endArrow=block;edgeStyle=elbowEdgeStyle;elbow=vertical;curved=0;rounded=0;entryX=0.464;entryY=0.128;entryDx=0;entryDy=0;entryPerimeter=0;" edge="1" parent="1">
          <mxGeometry x="-1" y="-291" width="80" relative="1" as="geometry">
            <mxPoint x="409" y="383" as="sourcePoint" />
            <mxPoint x="408.96000000000004" y="422.9839999999999" as="targetPoint" />
            <mxPoint x="-280" y="-371" as="offset" />
          </mxGeometry>
        </mxCell>
        <mxCell id="WYrvmtlL9bK9VxbpXy3B-61" value="C3 : Customer" style="swimlane;fontStyle=0;childLayout=stackLayout;horizontal=1;startSize=26;fillColor=none;horizontalStack=0;resizeParent=1;resizeParentMax=0;resizeLast=0;collapsible=1;marginBottom=0;whiteSpace=wrap;html=1;" vertex="1" parent="1">
          <mxGeometry x="325" y="580" width="180" height="52" as="geometry" />
        </mxCell>
        <mxCell id="WYrvmtlL9bK9VxbpXy3B-62" value="CustomerName = Moses" style="text;strokeColor=none;fillColor=none;align=left;verticalAlign=top;spacingLeft=4;spacingRight=4;overflow=hidden;rotatable=0;points=[[0,0.5],[1,0.5]];portConstraint=eastwest;whiteSpace=wrap;html=1;" vertex="1" parent="WYrvmtlL9bK9VxbpXy3B-61">
          <mxGeometry y="26" width="180" height="26" as="geometry" />
        </mxCell>
        <mxCell id="WYrvmtlL9bK9VxbpXy3B-65" value="S3 : SavingAccount" style="swimlane;fontStyle=1;align=center;verticalAlign=top;childLayout=stackLayout;horizontal=1;startSize=26;horizontalStack=0;resizeParent=1;resizeParentMax=0;resizeLast=0;collapsible=1;marginBottom=0;whiteSpace=wrap;html=1;" vertex="1" parent="1">
          <mxGeometry x="160" y="690" width="160" height="78" as="geometry" />
        </mxCell>
        <mxCell id="WYrvmtlL9bK9VxbpXy3B-66" value="InteresrRate = 8.0" style="text;strokeColor=none;fillColor=none;align=left;verticalAlign=top;spacingLeft=4;spacingRight=4;overflow=hidden;rotatable=0;points=[[0,0.5],[1,0.5]];portConstraint=eastwest;whiteSpace=wrap;html=1;" vertex="1" parent="WYrvmtlL9bK9VxbpXy3B-65">
          <mxGeometry y="26" width="160" height="26" as="geometry" />
        </mxCell>
        <mxCell id="WYrvmtlL9bK9VxbpXy3B-68" value="CheckBalance = 30001" style="text;strokeColor=none;fillColor=none;align=left;verticalAlign=top;spacingLeft=4;spacingRight=4;overflow=hidden;rotatable=0;points=[[0,0.5],[1,0.5]];portConstraint=eastwest;whiteSpace=wrap;html=1;" vertex="1" parent="WYrvmtlL9bK9VxbpXy3B-65">
          <mxGeometry y="52" width="160" height="26" as="geometry" />
        </mxCell>
        <mxCell id="WYrvmtlL9bK9VxbpXy3B-69" value="C3 : CurrentAccount" style="swimlane;fontStyle=0;childLayout=stackLayout;horizontal=1;startSize=26;fillColor=none;horizontalStack=0;resizeParent=1;resizeParentMax=0;resizeLast=0;collapsible=1;marginBottom=0;whiteSpace=wrap;html=1;" vertex="1" parent="1">
          <mxGeometry x="365" y="690" width="140" height="78" as="geometry" />
        </mxCell>
        <mxCell id="WYrvmtlL9bK9VxbpXy3B-70" value="InterestRate = 5.0" style="text;strokeColor=none;fillColor=none;align=left;verticalAlign=top;spacingLeft=4;spacingRight=4;overflow=hidden;rotatable=0;points=[[0,0.5],[1,0.5]];portConstraint=eastwest;whiteSpace=wrap;html=1;" vertex="1" parent="WYrvmtlL9bK9VxbpXy3B-69">
          <mxGeometry y="26" width="140" height="26" as="geometry" />
        </mxCell>
        <mxCell id="WYrvmtlL9bK9VxbpXy3B-71" value="CheckBalance = 30002" style="text;strokeColor=none;fillColor=none;align=left;verticalAlign=top;spacingLeft=4;spacingRight=4;overflow=hidden;rotatable=0;points=[[0,0.5],[1,0.5]];portConstraint=eastwest;whiteSpace=wrap;html=1;" vertex="1" parent="WYrvmtlL9bK9VxbpXy3B-69">
          <mxGeometry y="52" width="140" height="26" as="geometry" />
        </mxCell>
        <mxCell id="WYrvmtlL9bK9VxbpXy3B-73" value="L3 : LoanAccount" style="swimlane;fontStyle=0;childLayout=stackLayout;horizontal=1;startSize=26;fillColor=none;horizontalStack=0;resizeParent=1;resizeParentMax=0;resizeLast=0;collapsible=1;marginBottom=0;whiteSpace=wrap;html=1;" vertex="1" parent="1">
          <mxGeometry x="570" y="690" width="160" height="104" as="geometry" />
        </mxCell>
        <mxCell id="WYrvmtlL9bK9VxbpXy3B-74" value="LoanNo = 123456" style="text;strokeColor=none;fillColor=none;align=left;verticalAlign=top;spacingLeft=4;spacingRight=4;overflow=hidden;rotatable=0;points=[[0,0.5],[1,0.5]];portConstraint=eastwest;whiteSpace=wrap;html=1;" vertex="1" parent="WYrvmtlL9bK9VxbpXy3B-73">
          <mxGeometry y="26" width="160" height="26" as="geometry" />
        </mxCell>
        <mxCell id="WYrvmtlL9bK9VxbpXy3B-75" value="LoanAmount = 30003" style="text;strokeColor=none;fillColor=none;align=left;verticalAlign=top;spacingLeft=4;spacingRight=4;overflow=hidden;rotatable=0;points=[[0,0.5],[1,0.5]];portConstraint=eastwest;whiteSpace=wrap;html=1;" vertex="1" parent="WYrvmtlL9bK9VxbpXy3B-73">
          <mxGeometry y="52" width="160" height="26" as="geometry" />
        </mxCell>
        <mxCell id="WYrvmtlL9bK9VxbpXy3B-76" value="LoanType = Personal Loan" style="text;strokeColor=none;fillColor=none;align=left;verticalAlign=top;spacingLeft=4;spacingRight=4;overflow=hidden;rotatable=0;points=[[0,0.5],[1,0.5]];portConstraint=eastwest;whiteSpace=wrap;html=1;" vertex="1" parent="WYrvmtlL9bK9VxbpXy3B-73">
          <mxGeometry y="78" width="160" height="26" as="geometry" />
        </mxCell>
        <mxCell id="WYrvmtlL9bK9VxbpXy3B-77" value="" style="html=1;verticalAlign=bottom;endArrow=block;edgeStyle=elbowEdgeStyle;elbow=vertical;curved=0;rounded=0;exitX=0.483;exitY=1.269;exitDx=0;exitDy=0;exitPerimeter=0;" edge="1" parent="1" source="WYrvmtlL9bK9VxbpXy3B-62">
          <mxGeometry x="0.4986" y="-50" width="80" relative="1" as="geometry">
            <mxPoint x="395" y="650" as="sourcePoint" />
            <mxPoint x="650" y="680" as="targetPoint" />
            <mxPoint as="offset" />
          </mxGeometry>
        </mxCell>
        <mxCell id="WYrvmtlL9bK9VxbpXy3B-78" value="" style="html=1;verticalAlign=bottom;endArrow=block;edgeStyle=elbowEdgeStyle;elbow=vertical;curved=0;rounded=0;" edge="1" parent="1">
          <mxGeometry x="-0.9972" y="-231" width="80" relative="1" as="geometry">
            <mxPoint x="412" y="641" as="sourcePoint" />
            <mxPoint x="240" y="677" as="targetPoint" />
            <mxPoint x="-220" y="-161" as="offset" />
          </mxGeometry>
        </mxCell>
        <mxCell id="WYrvmtlL9bK9VxbpXy3B-79" value="" style="html=1;verticalAlign=bottom;endArrow=block;edgeStyle=elbowEdgeStyle;elbow=vertical;curved=0;rounded=0;entryX=0.321;entryY=0;entryDx=0;entryDy=0;entryPerimeter=0;" edge="1" parent="1">
          <mxGeometry x="-0.9972" y="-240" width="80" relative="1" as="geometry">
            <mxPoint x="412" y="657" as="sourcePoint" />
            <mxPoint x="411.9399999999998" y="687" as="targetPoint" />
            <Array as="points">
              <mxPoint x="480" y="637" />
            </Array>
            <mxPoint x="-230" y="-170" as="offset" />
          </mxGeometry>
        </mxCell>
      </root>
    </mxGraphModel>
  </diagram>
</mxfile>
